<?xml version="1.0" encoding="UTF-8"?><svg id="layout" xmlns="http://www.w3.org/2000/svg" viewBox="0 0 500.66 176.62"><defs><style>.cls-1{fill:#fff;}</style></defs><path class="cls-1" d="M187.81,48.34h13.47l14.12,44.74h.98l14.01-44.74h13.79l-19.44,56.91h-17.38l-19.55-56.91Z"/><path class="cls-1" d="M312.9,48.34h12.81v6.52h.98c2.5-4.34,7.71-7.93,15.31-7.93,12.49,0,20.42,9.34,20.42,21.07v37.25h-12.81v-34.21c0-7.06-5-11.95-11.51-11.95-7.06,0-12.38,5.43-12.38,12.6v33.56h-12.81v-56.91Z"/><path class="cls-1" d="M371.07,88.19v-28.56h0v-11.3h0v-15.96h12.92v15.96h16.07v11.3h-16.07v28.45c0,4.02,1.63,5.76,5.54,5.76h9.88v11.4h-9.99c-11.08,0-18.35-5-18.35-17.05Z"/><path class="cls-1" d="M404.87,76.9c0-17.92,13.14-29.97,28.45-29.97,17.38,0,27.91,12.6,27.91,29.54v3.58h-43.11c.11,9.56,6.3,15.64,15.64,15.64,6.3,0,12.27-3.26,14.33-9.56l11.73,2.82c-3.69,11.84-14.12,17.7-25.95,17.7-17.38,0-29-12.38-29-29.76ZM448.2,70.71c-.65-7.71-7.06-12.6-14.88-12.6s-14.33,5.76-15.1,12.6h29.97Z"/><path class="cls-1" d="M113.62,37.79c-3.61-6.64-8.85-11.88-15.58-15.58-6.72-3.69-14.68-5.57-23.66-5.57h-34.95v26.08l21.86,17.35c.56.45.56,1.3,0,1.74l-21.8,17.3-.06.05v26.08h34.95c8.98,0,16.94-1.87,23.66-5.57,6.72-3.7,11.96-8.96,15.58-15.64,3.61-6.68,5.44-14.45,5.44-23.09s-1.83-16.52-5.44-23.16ZM53.16,82.65l23.7-18.81c1.79-1.42,1.8-4.13.02-5.56l-23.71-19.04v-10.36h21.49c9.6,0,17.15,2.96,22.43,8.8,5.21,5.77,7.86,13.6,7.86,23.27s-2.64,17.5-7.86,23.27c-5.28,5.84-12.83,8.8-22.43,8.8h-21.49v-10.36Z"/><path class="cls-1" d="M168.07,48.35h13.2v56.9h-13.2v-5.96c-5.41,5.06-11.24,7.59-17.47,7.59-7.87,0-14.37-2.84-19.51-8.53-5.1-5.8-7.65-13.05-7.65-21.73s2.55-15.63,7.65-21.32c5.1-5.68,11.49-8.53,19.16-8.53,6.62,0,12.56,2.73,17.82,8.18v-6.6ZM136.87,76.62c0,5.45,1.46,9.89,4.38,13.32,3,3.47,6.78,5.2,11.33,5.2,4.87,0,8.8-1.67,11.8-5.02,3-3.47,4.5-7.87,4.5-13.2s-1.5-9.74-4.5-13.2c-3-3.39-6.89-5.08-11.68-5.08-4.52,0-8.29,1.71-11.33,5.14-3,3.47-4.5,7.75-4.5,12.85Z"/><path class="cls-1" d="M289.33,48.35h13.2v56.9h-13.2v-5.96c-5.41,5.06-11.24,7.59-17.47,7.59-7.87,0-14.37-2.84-19.51-8.53-5.1-5.8-7.65-13.05-7.65-21.73s2.55-15.63,7.65-21.32c5.1-5.68,11.49-8.53,19.16-8.53,6.62,0,12.56,2.73,17.82,8.18v-6.6ZM258.13,76.62c0,5.45,1.46,9.89,4.38,13.32,3,3.47,6.78,5.2,11.33,5.2,4.87,0,8.8-1.67,11.8-5.02,3-3.47,4.5-7.87,4.5-13.2s-1.5-9.74-4.5-13.2c-3-3.39-6.89-5.08-11.68-5.08-4.52,0-8.29,1.71-11.33,5.14-3,3.47-4.5,7.75-4.5,12.85Z"/><path class="cls-1" d="M39.45,159.31v-31.84h19.17v5.33h-13.84v7.94h11.19v5.31h-11.19v13.27h-5.33Z"/><path class="cls-1" d="M71.6,159.98c-2.39,0-4.47-.54-6.26-1.61-1.78-1.08-3.17-2.56-4.15-4.46-.98-1.89-1.47-4.07-1.47-6.53s.5-4.7,1.5-6.59c1-1.89,2.39-3.36,4.18-4.42,1.78-1.06,3.85-1.59,6.19-1.59s4.5.54,6.28,1.61,3.17,2.56,4.16,4.46c.99,1.89,1.48,4.07,1.48,6.53s-.5,4.66-1.49,6.56c-.99,1.89-2.38,3.38-4.17,4.44-1.78,1.07-3.87,1.6-6.26,1.6ZM71.6,154.98c2.12,0,3.7-.71,4.73-2.12,1.03-1.42,1.55-3.24,1.55-5.48s-.52-4.16-1.57-5.54c-1.05-1.38-2.62-2.07-4.71-2.07-1.43,0-2.61.32-3.53.96-.92.64-1.6,1.53-2.04,2.67s-.66,2.46-.66,3.97c0,2.31.53,4.16,1.58,5.54,1.05,1.38,2.61,2.07,4.65,2.07Z"/><path class="cls-1" d="M98.75,135.33c-.75.05-1.49.19-2.2.42-.71.23-1.37.54-1.96.94-.69.43-1.29.97-1.78,1.62-.23.3-.42.62-.61.95v-3.83h-4.71v23.88h5.35v-12.14c0-.91.11-1.76.33-2.55.22-.79.56-1.49,1.03-2.11.46-.62,1.06-1.13,1.8-1.53.74-.44,1.57-.7,2.49-.77.92-.07,1.74,0,2.44.2v-4.97c-.71-.12-1.44-.15-2.19-.1Z"/><path class="cls-1" d="M136.15,137.21c-1.41-1.58-3.43-2.38-6.07-2.38-1.59,0-3.04.35-4.33,1.06-1.23.67-2.21,1.6-2.95,2.76-.59-1.11-1.41-2.01-2.47-2.69-1.2-.76-2.69-1.14-4.48-1.14-1.62,0-3.08.36-4.39,1.07-1,.55-1.85,1.26-2.53,2.12v-2.6h-4.71v23.88h5.37v-14.7c0-1.49.41-2.7,1.23-3.63.82-.93,1.9-1.39,3.26-1.39s2.51.46,3.32,1.39,1.22,2.23,1.22,3.89v14.44h5.31v-14.7c0-1.05.2-1.95.6-2.71.4-.76.94-1.33,1.61-1.72.68-.39,1.44-.58,2.3-.58,1.39,0,2.48.46,3.29,1.38.81.92,1.22,2.2,1.22,3.84v14.5h5.33v-15.85c0-2.58-.7-4.66-2.11-6.25Z"/><path class="cls-1" d="M162.71,141.79c-.09-.88-.35-1.74-.77-2.58-.78-1.58-1.98-2.71-3.59-3.41-1.61-.69-3.48-1.04-5.61-1.04-2.82,0-5.05.61-6.71,1.83s-2.78,2.84-3.37,4.86l4.86,1.53c.4-1.22,1.1-2.08,2.1-2.59,1-.5,2.04-.75,3.12-.75,1.78,0,3.05.39,3.8,1.17.62.65.97,1.61,1.06,2.86-.96.14-1.89.28-2.8.41-1.51.21-2.91.45-4.2.7-1.29.25-2.41.53-3.37.84-1.27.43-2.3.98-3.1,1.65-.8.67-1.39,1.47-1.77,2.39-.38.92-.58,1.96-.58,3.11,0,1.31.31,2.51.92,3.6.61,1.09,1.51,1.96,2.71,2.62,1.19.66,2.65.98,4.38.98,2.15,0,3.95-.4,5.38-1.21,1.11-.62,2.1-1.52,3-2.68v3.22h4.67v-14.66c0-1.03-.04-1.99-.13-2.86ZM157.03,151.77c-.18.54-.52,1.13-1.03,1.75s-1.19,1.14-2.04,1.57c-.86.43-1.89.64-3.1.64-.84,0-1.54-.13-2.11-.4-.57-.27-1-.62-1.29-1.07-.29-.45-.44-.97-.44-1.56,0-.52.11-.96.34-1.35.23-.38.56-.72.98-1.02.43-.29.95-.55,1.57-.77.63-.21,1.36-.39,2.19-.56.83-.17,1.81-.35,2.96-.54.73-.12,1.57-.26,2.49-.4,0,.41-.02.86-.05,1.39-.04.88-.2,1.65-.47,2.33Z"/><path class="cls-1" d="M178.08,159.98c-2.46,0-4.56-.55-6.3-1.65-1.74-1.1-3.07-2.6-3.99-4.5-.92-1.9-1.39-4.05-1.4-6.46.01-2.45.5-4.62,1.45-6.51.95-1.89,2.3-3.38,4.06-4.47,1.75-1.08,3.84-1.62,6.26-1.62,2.71,0,5.01.68,6.89,2.04,1.88,1.36,3.11,3.22,3.68,5.58l-5.31,1.44c-.41-1.28-1.1-2.28-2.06-3s-2.05-1.07-3.27-1.07c-1.39,0-2.53.33-3.43.98-.9.66-1.56,1.56-1.99,2.71-.43,1.15-.64,2.45-.64,3.91,0,2.27.51,4.11,1.53,5.51,1.02,1.4,2.53,2.1,4.53,2.1,1.42,0,2.53-.32,3.35-.97.82-.65,1.43-1.58,1.85-2.81l5.44,1.22c-.74,2.43-2.03,4.3-3.87,5.61-1.84,1.3-4.1,1.96-6.77,1.96Z"/><path class="cls-1" d="M192.05,131.81v-4.89h5.33v4.89h-5.33ZM192.05,159.31v-23.88h5.33v23.88h-5.33Z"/><path class="cls-1" d="M213.67,159.98c-2.39,0-4.47-.54-6.26-1.61-1.78-1.08-3.17-2.56-4.15-4.46-.98-1.89-1.47-4.07-1.47-6.53s.5-4.7,1.5-6.59c1-1.89,2.39-3.36,4.18-4.42,1.78-1.06,3.85-1.59,6.19-1.59s4.5.54,6.28,1.61,3.17,2.56,4.16,4.46c.99,1.89,1.48,4.07,1.48,6.53s-.5,4.66-1.49,6.56c-.99,1.89-2.38,3.38-4.17,4.44-1.78,1.07-3.87,1.6-6.26,1.6ZM213.67,154.98c2.12,0,3.7-.71,4.73-2.12,1.03-1.42,1.55-3.24,1.55-5.48s-.52-4.16-1.57-5.54c-1.05-1.38-2.62-2.07-4.71-2.07-1.43,0-2.61.32-3.53.96-.92.64-1.6,1.53-2.04,2.67s-.66,2.46-.66,3.97c0,2.31.53,4.16,1.58,5.54,1.05,1.38,2.61,2.07,4.65,2.07ZM215.77,132.01h-4.05l3.41-8.18h4.05l-3.41,8.18Z"/><path class="cls-1" d="M251.34,143.74c-.1-.92-.31-1.9-.63-2.93-.32-1.03-.83-2-1.5-2.92-.68-.91-1.59-1.67-2.74-2.25s-2.61-.88-4.38-.88c-2.24,0-4.13.49-5.66,1.47-.83.53-1.53,1.16-2.14,1.88v-2.67h-4.75v23.88h5.4v-12.27c0-1.46.16-2.66.49-3.59.32-.94.75-1.67,1.29-2.21s1.14-.92,1.8-1.14c.66-.22,1.33-.33,2.01-.33,1.27,0,2.27.27,3.02.82.74.55,1.3,1.24,1.68,2.09s.62,1.73.72,2.64c.1.92.15,1.75.15,2.5v11.5h5.4v-13.33c0-.58-.05-1.32-.14-2.24Z"/><path class="cls-1" d="M284.49,159.31h5.48l-10.04-31.84h-7.81l-10.04,31.84h5.48l2.17-6.9h12.54l2.2,6.9ZM271.32,147.44l4.67-14.81,4.72,14.81h-9.39Z"/><path class="cls-1" d="M314.07,140.91c-.91-1.89-2.2-3.39-3.86-4.49-1.66-1.1-3.62-1.65-5.87-1.65s-4.17.55-5.71,1.65c-.08.06-.15.13-.23.19v-9.14h-5.37v31.84h4.71v-1.77c.3.27.61.54.95.77,1.58,1.11,3.53,1.66,5.86,1.66,2.2,0,4.11-.55,5.75-1.66,1.64-1.11,2.9-2.61,3.8-4.51.9-1.9,1.35-4.05,1.35-6.43s-.46-4.57-1.37-6.47ZM309.16,151.34c-.44,1.19-1.1,2.13-2,2.82-.9.69-2.04,1.04-3.43,1.04s-2.58-.33-3.46-.98c-.88-.66-1.52-1.57-1.92-2.75-.41-1.18-.61-2.54-.61-4.09s.2-2.93.61-4.1,1.04-2.08,1.89-2.74,1.96-.98,3.32-.98c1.43,0,2.61.35,3.54,1.05s1.61,1.64,2.06,2.83c.44,1.19.66,2.5.66,3.95s-.22,2.78-.65,3.97Z"/><path class="cls-1" d="M319.87,131.81v-4.89h5.33v4.89h-5.33ZM319.87,159.31v-23.88h5.33v23.88h-5.33Z"/><path class="cls-1" d="M350,148.86h2.61c.21-2.86-.11-5.34-.95-7.45-.84-2.11-2.13-3.74-3.86-4.9s-3.84-1.74-6.31-1.74c-2.34,0-4.41.53-6.19,1.59-1.78,1.06-3.18,2.55-4.18,4.48-1,1.92-1.5,4.19-1.5,6.8,0,2.42.51,4.55,1.54,6.41,1.02,1.86,2.45,3.31,4.28,4.36,1.83,1.05,3.95,1.57,6.37,1.57s4.4-.6,6.31-1.79c1.91-1.19,3.32-2.87,4.23-5.02l-5.26-1.59c-.52,1.11-1.25,1.95-2.2,2.53-.95.58-2.08.87-3.39.87-2.03,0-3.58-.66-4.64-1.99-.83-1.04-1.33-2.43-1.51-4.13h14.66ZM341.71,139.44c1.93,0,3.35.6,4.25,1.79.64.85,1.05,2.05,1.24,3.6h-11.73c.24-1.38.7-2.51,1.39-3.37,1.06-1.35,2.68-2.02,4.86-2.02Z"/><path class="cls-1" d="M367.93,135.33c-.75.05-1.49.19-2.2.42-.71.23-1.37.54-1.96.94-.69.43-1.29.97-1.78,1.62-.23.3-.42.62-.61.95v-3.83h-4.71v23.88h5.35v-12.14c0-.91.11-1.76.33-2.55.22-.79.56-1.49,1.03-2.11.46-.62,1.06-1.13,1.8-1.53.74-.44,1.57-.7,2.49-.77.92-.07,1.74,0,2.44.2v-4.97c-.71-.12-1.44-.15-2.19-.1Z"/><path class="cls-1" d="M387.43,139.61v-4.18h-7.01v-6.63h-5.31v6.63h-4.33v4.18h4.33v9.95c0,1.36.01,2.57.04,3.65.03,1.08.32,2.13.86,3.16.62,1.13,1.53,1.96,2.72,2.49,1.19.52,2.55.8,4.06.84s3.05-.09,4.63-.39v-4.47c-1.49.22-2.82.28-3.98.18-1.17-.1-2.01-.6-2.54-1.48-.28-.46-.43-1.05-.45-1.77-.02-.72-.03-1.56-.03-2.52v-9.64h7.01Z"/><path class="cls-1" d="M411.29,141.79c-.09-.88-.35-1.74-.77-2.58-.78-1.58-1.98-2.71-3.59-3.41-1.61-.69-3.48-1.04-5.61-1.04-2.82,0-5.05.61-6.71,1.83s-2.78,2.84-3.37,4.86l4.86,1.53c.4-1.22,1.1-2.08,2.1-2.59,1-.5,2.04-.75,3.12-.75,1.78,0,3.05.39,3.8,1.17.62.65.97,1.61,1.06,2.86-.96.14-1.89.28-2.8.41-1.51.21-2.91.45-4.2.7-1.29.25-2.41.53-3.37.84-1.27.43-2.3.98-3.1,1.65-.8.67-1.39,1.47-1.77,2.39-.38.92-.58,1.96-.58,3.11,0,1.31.31,2.51.92,3.6.61,1.09,1.51,1.96,2.71,2.62,1.19.66,2.65.98,4.38.98,2.15,0,3.95-.4,5.38-1.21,1.11-.62,2.1-1.52,3-2.68v3.22h4.67v-14.66c0-1.03-.04-1.99-.13-2.86ZM405.61,151.77c-.18.54-.52,1.13-1.03,1.75s-1.19,1.14-2.04,1.57c-.86.43-1.89.64-3.1.64-.84,0-1.54-.13-2.11-.4-.57-.27-1-.62-1.29-1.07-.29-.45-.44-.97-.44-1.56,0-.52.11-.96.34-1.35.23-.38.56-.72.98-1.02.43-.29.95-.55,1.57-.77.63-.21,1.36-.39,2.19-.56.83-.17,1.81-.35,2.96-.54.73-.12,1.57-.26,2.49-.4,0,.41-.02.86-.05,1.39-.04.88-.2,1.65-.47,2.33Z"/></svg>