<?xml version="1.0" encoding="UTF-8"?><svg id="layout" xmlns="http://www.w3.org/2000/svg" viewBox="0 0 453.54 136.06"><defs><style>.cls-1{fill:#fff;}</style></defs><path class="cls-1" d="M168.02,54.75h13.33l13.97,44.28h.97l13.87-44.28h13.65l-19.24,56.32h-17.2l-19.35-56.32Z"/><path class="cls-1" d="M291.82,54.75h12.68v6.45h.97c2.47-4.3,7.63-7.84,15.15-7.84,12.36,0,20.21,9.24,20.21,20.85v36.86h-12.68v-33.86c0-6.99-4.94-11.82-11.39-11.82-6.99,0-12.25,5.37-12.25,12.47v33.21h-12.68v-56.32Z"/><path class="cls-1" d="M349.38,94.19v-28.26h0v-11.18h0v-15.8h12.79v15.8h15.91v11.18h-15.91v28.16c0,3.98,1.61,5.7,5.48,5.7h9.78v11.29h-9.89c-10.96,0-18.16-4.95-18.16-16.88Z"/><path class="cls-1" d="M382.84,83.02c0-17.73,13-29.66,28.16-29.66,17.2,0,27.62,12.47,27.62,29.23v3.55h-42.67c.11,9.46,6.23,15.47,15.48,15.47,6.23,0,12.15-3.22,14.19-9.46l11.61,2.79c-3.65,11.72-13.97,17.52-25.69,17.52-17.2,0-28.7-12.25-28.7-29.45ZM425.73,76.89c-.64-7.63-6.99-12.47-14.72-12.47s-14.19,5.7-14.94,12.47h29.66Z"/><path class="cls-1" d="M94.58,44.31c-3.58-6.57-8.76-11.75-15.42-15.42-6.65-3.66-14.53-5.51-23.42-5.51H21.16v25.81l21.64,17.17c.56.44.56,1.28,0,1.72l-21.58,17.13-.06.05v25.81h34.59c8.89,0,16.77-1.85,23.42-5.51,6.65-3.66,11.84-8.87,15.42-15.48,3.57-6.61,5.39-14.3,5.39-22.86s-1.81-16.35-5.39-22.92ZM34.75,88.71l23.45-18.62c1.77-1.41,1.78-4.09.02-5.51l-23.47-18.85v-10.25h21.27c9.51,0,16.97,2.93,22.2,8.71,5.16,5.71,7.78,13.46,7.78,23.03s-2.62,17.32-7.78,23.03c-5.22,5.78-12.69,8.71-22.2,8.71h-21.27v-10.25Z"/><path class="cls-1" d="M148.47,54.76h13.07v56.31h-13.07v-5.9c-5.36,5.01-11.12,7.52-17.29,7.52-7.79,0-14.22-2.81-19.31-8.44-5.05-5.74-7.57-12.91-7.57-21.51s2.52-15.47,7.57-21.1c5.05-5.63,11.37-8.44,18.96-8.44,6.55,0,12.43,2.7,17.63,8.09v-6.53ZM117.6,82.74c0,5.4,1.45,9.79,4.34,13.18,2.97,3.43,6.71,5.15,11.22,5.15,4.82,0,8.71-1.66,11.68-4.97,2.97-3.43,4.45-7.78,4.45-13.07s-1.48-9.63-4.45-13.07c-2.97-3.35-6.82-5.03-11.56-5.03-4.47,0-8.21,1.7-11.22,5.09-2.97,3.43-4.45,7.67-4.45,12.72Z"/><path class="cls-1" d="M268.49,54.76h13.07v56.31h-13.07v-5.9c-5.36,5.01-11.12,7.52-17.29,7.52-7.79,0-14.22-2.81-19.31-8.44-5.05-5.74-7.57-12.91-7.57-21.51s2.52-15.47,7.57-21.1c5.05-5.63,11.37-8.44,18.96-8.44,6.55,0,12.43,2.7,17.63,8.09v-6.53ZM237.61,82.74c0,5.4,1.45,9.79,4.34,13.18,2.97,3.43,6.71,5.15,11.22,5.15,4.82,0,8.71-1.66,11.68-4.97,2.97-3.43,4.45-7.78,4.45-13.07s-1.48-9.63-4.45-13.07c-2.97-3.35-6.82-5.03-11.56-5.03-4.47,0-8.21,1.7-11.22,5.09-2.97,3.43-4.45,7.67-4.45,12.72Z"/></svg>