<?xml version="1.0" encoding="UTF-8"?><svg id="layout" xmlns="http://www.w3.org/2000/svg" viewBox="0 0 500.66 176.62"><defs><style>.cls-1{fill:#fff;}</style></defs><path class="cls-1" d="M187.9,48.39h13.45l14.1,44.68h.98l13.99-44.68h13.77l-19.41,56.83h-17.35l-19.52-56.83Z"/><path class="cls-1" d="M312.82,48.39h12.8v6.51h.98c2.49-4.34,7.7-7.92,15.29-7.92,12.47,0,20.39,9.33,20.39,21.04v37.2h-12.8v-34.16c0-7.05-4.99-11.93-11.5-11.93-7.05,0-12.36,5.42-12.36,12.58v33.51h-12.8v-56.83Z"/><path class="cls-1" d="M370.9,88.19v-28.52h0v-11.28h0v-15.94h12.91v15.94h16.05v11.28h-16.05v28.41c0,4.01,1.63,5.75,5.53,5.75h9.87v11.39h-9.98c-11.06,0-18.33-4.99-18.33-17.03Z"/><path class="cls-1" d="M404.66,76.92c0-17.89,13.12-29.93,28.41-29.93,17.35,0,27.87,12.58,27.87,29.5v3.58h-43.05c.11,9.54,6.29,15.61,15.62,15.61,6.29,0,12.25-3.25,14.32-9.54l11.71,2.82c-3.69,11.82-14.1,17.68-25.92,17.68-17.35,0-28.96-12.36-28.96-29.71ZM447.93,70.73c-.65-7.7-7.05-12.58-14.86-12.58s-14.32,5.75-15.07,12.58h29.93Z"/><path class="cls-1" d="M113.8,37.86c-3.61-6.63-8.84-11.86-15.56-15.56-6.71-3.69-14.66-5.56-23.63-5.56h-34.91v26.04l21.83,17.33c.56.44.56,1.3,0,1.74l-21.77,17.28-.06.05v26.04h34.91c8.97,0,16.92-1.87,23.63-5.56,6.71-3.69,11.95-8.95,15.56-15.62,3.61-6.67,5.43-14.43,5.43-23.06s-1.83-16.49-5.43-23.12ZM53.43,82.66l23.67-18.79c1.79-1.42,1.79-4.13.02-5.56l-23.68-19.02v-10.34h21.46c9.59,0,17.13,2.96,22.4,8.79,5.21,5.76,7.85,13.58,7.85,23.23s-2.64,17.47-7.85,23.24c-5.27,5.83-12.81,8.79-22.4,8.79h-21.46v-10.34Z"/><path class="cls-1" d="M168.18,48.4h13.18v56.82h-13.18v-5.95c-5.41,5.06-11.22,7.58-17.44,7.58-7.86,0-14.35-2.84-19.48-8.52-5.1-5.79-7.64-13.03-7.64-21.7s2.55-15.61,7.64-21.29c5.09-5.68,11.47-8.52,19.13-8.52,6.61,0,12.54,2.72,17.79,8.17v-6.59ZM137.03,76.63c0,5.45,1.46,9.88,4.38,13.3,2.99,3.46,6.77,5.19,11.32,5.19,4.86,0,8.79-1.67,11.78-5.02,2.99-3.46,4.49-7.86,4.49-13.18s-1.5-9.72-4.49-13.18c-2.99-3.38-6.88-5.08-11.67-5.08-4.51,0-8.28,1.71-11.32,5.13-3,3.46-4.49,7.74-4.49,12.83Z"/><path class="cls-1" d="M289.27,48.4h13.18v56.82h-13.18v-5.95c-5.41,5.06-11.22,7.58-17.44,7.58-7.86,0-14.35-2.84-19.48-8.52-5.1-5.79-7.64-13.03-7.64-21.7s2.55-15.61,7.64-21.29c5.09-5.68,11.47-8.52,19.13-8.52,6.61,0,12.54,2.72,17.79,8.17v-6.59ZM258.12,76.63c0,5.45,1.46,9.88,4.38,13.3,2.99,3.46,6.77,5.19,11.32,5.19,4.86,0,8.79-1.67,11.78-5.02,2.99-3.46,4.49-7.86,4.49-13.18s-1.5-9.72-4.49-13.18c-2.99-3.38-6.88-5.08-11.67-5.08-4.51,0-8.28,1.71-11.32,5.13-3,3.46-4.49,7.74-4.49,12.83Z"/><path class="cls-1" d="M39.74,159.22v-31.79h19.14v5.32h-13.82v7.93h11.17v5.3h-11.17v13.25h-5.32Z"/><path class="cls-1" d="M75,159.88c-2.53,0-4.76-.52-6.68-1.54-1.92-1.03-3.42-2.48-4.5-4.35-1.08-1.87-1.62-4.06-1.62-6.58v-19.94l5.39-.04v19.85c0,1.19.2,2.26.61,3.2.4.94.95,1.74,1.64,2.4.69.66,1.49,1.15,2.38,1.49s1.83.51,2.78.51,1.92-.17,2.82-.52,1.68-.85,2.37-1.5c.69-.65,1.24-1.45,1.63-2.4s.6-2,.6-3.18v-19.85h5.39v19.98c0,2.52-.54,4.71-1.62,6.58-1.08,1.87-2.58,3.32-4.5,4.35-1.92,1.03-4.15,1.54-6.68,1.54Z"/><path class="cls-1" d="M93.32,159.22v-31.79h5.39l14.75,22.41v-22.41h5.39v31.79h-5.39l-14.75-22.41v22.41h-5.39Z"/><path class="cls-1" d="M124.37,159.22v-31.79h10.13c.27,0,.79,0,1.58.02.79.01,1.55.07,2.29.15,2.52.32,4.65,1.22,6.39,2.68,1.75,1.46,3.07,3.33,3.96,5.6.9,2.27,1.35,4.75,1.35,7.44s-.45,5.17-1.35,7.44c-.9,2.27-2.22,4.13-3.96,5.6-1.74,1.46-3.88,2.36-6.39,2.68-.72.09-1.48.14-2.27.15-.79.02-1.32.02-1.59.02h-10.13ZM129.78,154.21h4.72c.44,0,1-.01,1.69-.04.68-.03,1.29-.09,1.82-.2,1.5-.28,2.72-.95,3.67-2.01.94-1.06,1.64-2.35,2.09-3.86.45-1.52.67-3.11.67-4.77s-.23-3.34-.68-4.86c-.46-1.52-1.16-2.79-2.11-3.82-.95-1.03-2.16-1.68-3.63-1.96-.53-.12-1.14-.19-1.82-.21-.68-.02-1.25-.03-1.69-.03h-4.72v21.77Z"/><path class="cls-1" d="M173.92,159.22h5.48l-10.02-31.79h-7.79l-10.02,31.79h5.48l2.17-6.89h12.52l2.2,6.89ZM160.76,147.36l4.66-14.79,4.72,14.79h-9.38Z"/><path class="cls-1" d="M195.27,159.88c-3.18,0-5.9-.7-8.17-2.09-2.27-1.39-4.01-3.33-5.22-5.82-1.21-2.49-1.82-5.37-1.82-8.66s.61-6.17,1.82-8.66c1.21-2.49,2.96-4.43,5.22-5.82,2.27-1.39,4.99-2.09,8.17-2.09,3.67,0,6.72.92,9.16,2.75,2.44,1.83,4.16,4.3,5.14,7.41l-5.37,1.48c-.62-2.08-1.67-3.7-3.16-4.87-1.49-1.17-3.42-1.76-5.78-1.76-2.13,0-3.91.48-5.33,1.44-1.42.96-2.49,2.3-3.2,4.03s-1.08,3.76-1.09,6.08c0,2.33.36,4.35,1.07,6.08s1.79,3.07,3.21,4.03c1.43.96,3.21,1.44,5.34,1.44,2.37,0,4.3-.59,5.78-1.77,1.49-1.18,2.54-2.8,3.16-4.86l5.37,1.48c-.99,3.11-2.7,5.58-5.14,7.41-2.44,1.83-5.5,2.75-9.16,2.75Z"/><path class="cls-1" d="M214.21,159.22v-31.79h5.32v31.79h-5.32Z"/><path class="cls-1" d="M238.94,159.88c-3.18,0-5.9-.7-8.17-2.09-2.27-1.39-4.01-3.33-5.22-5.82-1.21-2.49-1.82-5.37-1.82-8.66s.61-6.17,1.82-8.66c1.21-2.49,2.96-4.43,5.22-5.82,2.27-1.39,4.99-2.09,8.17-2.09s5.91.7,8.18,2.09c2.27,1.39,4.02,3.33,5.23,5.82,1.21,2.49,1.82,5.37,1.82,8.66s-.61,6.17-1.82,8.66c-1.21,2.49-2.96,4.43-5.23,5.82-2.27,1.39-5,2.09-8.18,2.09ZM238.94,154.87c2.13.01,3.91-.46,5.33-1.41,1.42-.96,2.49-2.3,3.2-4.04.71-1.74,1.07-3.77,1.07-6.09s-.36-4.35-1.07-6.06-1.78-3.05-3.2-4.01c-1.42-.96-3.2-1.45-5.33-1.48-2.13-.01-3.91.46-5.32,1.41s-2.48,2.3-3.19,4.04c-.71,1.74-1.07,3.77-1.07,6.09s.35,4.35,1.06,6.06c.71,1.72,1.77,3.05,3.19,4.01,1.42.96,3.2,1.45,5.33,1.48ZM241.19,124h-4.04l3.4-8.17h4.04l-3.4,8.17Z"/><path class="cls-1" d="M257.93,159.22v-31.79h5.39l14.75,22.41v-22.41h5.39v31.79h-5.39l-14.75-22.41v22.41h-5.39Z"/></svg>