<?xml version="1.0" encoding="UTF-8"?><svg id="layout" xmlns="http://www.w3.org/2000/svg" viewBox="0 0 500.66 176.62"><defs><style>.cls-1{fill:#fff;}</style></defs><path class="cls-1" d="M189.17,48.5h13.46l14.11,44.73h.98l14.01-44.73h13.79l-19.43,56.89h-17.37l-19.54-56.89Z"/><path class="cls-1" d="M314.23,48.5h12.81v6.51h.98c2.5-4.34,7.71-7.92,15.31-7.92,12.49,0,20.41,9.34,20.41,21.06v37.24h-12.81v-34.2c0-7.06-4.99-11.94-11.51-11.94-7.06,0-12.38,5.43-12.38,12.59v33.55h-12.81v-56.89Z"/><path class="cls-1" d="M372.38,88.35v-28.55h0v-11.29h0v-15.96h12.92v15.96h16.07v11.29h-16.07v28.44c0,4.02,1.63,5.75,5.54,5.75h9.88v11.4h-9.99c-11.07,0-18.35-5-18.35-17.05Z"/><path class="cls-1" d="M406.18,77.06c0-17.91,13.14-29.96,28.44-29.96,17.37,0,27.9,12.59,27.9,29.53v3.58h-43.1c.11,9.55,6.3,15.63,15.63,15.63,6.3,0,12.27-3.26,14.33-9.55l11.73,2.82c-3.69,11.83-14.11,17.7-25.95,17.7-17.37,0-28.99-12.38-28.99-29.75ZM449.5,70.87c-.65-7.71-7.06-12.59-14.87-12.59s-14.33,5.75-15.09,12.59h29.97Z"/><path class="cls-1" d="M115,37.96c-3.61-6.63-8.85-11.87-15.57-15.57-6.72-3.69-14.68-5.57-23.65-5.57h-34.94v26.07l21.85,17.35c.56.45.56,1.3,0,1.74l-21.79,17.3-.06.05v26.07h34.94c8.98,0,16.94-1.87,23.65-5.57,6.72-3.7,11.96-8.96,15.57-15.64,3.61-6.68,5.44-14.45,5.44-23.09s-1.83-16.51-5.44-23.15ZM54.56,82.81l23.69-18.81c1.79-1.42,1.8-4.13.02-5.56l-23.71-19.04v-10.35h21.48c9.6,0,17.15,2.96,22.42,8.8,5.21,5.77,7.86,13.6,7.86,23.26s-2.64,17.49-7.85,23.26c-5.28,5.84-12.82,8.8-22.42,8.8h-21.48v-10.36Z"/><path class="cls-1" d="M169.43,48.51h13.2v56.88h-13.2v-5.96c-5.41,5.06-11.23,7.59-17.46,7.59-7.86,0-14.37-2.84-19.51-8.53-5.1-5.8-7.65-13.04-7.65-21.72s2.55-15.63,7.65-21.32c5.1-5.68,11.48-8.53,19.15-8.53,6.62,0,12.56,2.73,17.81,8.18v-6.6ZM138.25,76.78c0,5.45,1.46,9.89,4.38,13.32,3,3.47,6.77,5.2,11.33,5.2,4.87,0,8.8-1.67,11.8-5.02,3-3.46,4.5-7.86,4.5-13.2s-1.5-9.73-4.5-13.2c-3-3.39-6.89-5.08-11.68-5.08-4.52,0-8.29,1.71-11.33,5.14-3,3.47-4.5,7.75-4.5,12.85Z"/><path class="cls-1" d="M290.66,48.51h13.2v56.88h-13.2v-5.96c-5.41,5.06-11.23,7.59-17.46,7.59-7.86,0-14.37-2.84-19.51-8.53-5.1-5.8-7.65-13.04-7.65-21.72s2.55-15.63,7.65-21.32c5.1-5.68,11.48-8.53,19.15-8.53,6.62,0,12.56,2.73,17.81,8.18v-6.6ZM259.48,76.78c0,5.45,1.46,9.89,4.38,13.32,3,3.47,6.77,5.2,11.33,5.2,4.87,0,8.8-1.67,11.8-5.02,3-3.46,4.5-7.86,4.5-13.2s-1.5-9.73-4.5-13.2c-3-3.39-6.89-5.08-11.68-5.08-4.52,0-8.29,1.71-11.33,5.14-3,3.47-4.5,7.75-4.5,12.85Z"/><polygon class="cls-1" points="60.27 132.05 38.14 132.05 38.14 136.31 46.93 136.31 46.93 159.22 51.47 159.22 51.47 136.31 60.27 136.31 60.27 132.05"/><path class="cls-1" d="M74.4,149.31c0,1.23-.14,2.25-.42,3.06-.28.81-.64,1.44-1.1,1.9-.46.46-.97.78-1.54.97-.57.19-1.14.28-1.72.28-1.08,0-1.94-.23-2.58-.7-.63-.47-1.11-1.06-1.43-1.78-.32-.72-.53-1.48-.61-2.26s-.13-1.49-.13-2.12v-9.81h-4.6v11.38c0,.49.04,1.13.12,1.92.08.79.26,1.62.54,2.5.28.88.7,1.71,1.28,2.49.58.78,1.36,1.42,2.34,1.92.98.5,2.23.75,3.74.75,1.91,0,3.52-.42,4.83-1.25.7-.45,1.31-.99,1.83-1.61v2.28h4.02v-20.38h-4.57v10.47Z"/><polygon class="cls-1" points="98.07 153.61 92.94 138.84 88.39 138.84 95.79 159.22 100.35 159.22 107.75 138.84 103.18 138.84 98.07 153.61"/><rect class="cls-1" x="110.77" y="131.58" width="4.55" height="4.17"/><rect class="cls-1" x="110.77" y="138.84" width="4.55" height="20.38"/><path class="cls-1" d="M133.74,148.59c-.97-.53-2.27-1.01-3.9-1.42-1.58-.4-2.78-.74-3.58-1.02-.8-.28-1.33-.55-1.59-.83-.26-.28-.4-.61-.4-1,0-.69.33-1.23.98-1.61.65-.38,1.51-.54,2.58-.48,1.12.06,2.02.35,2.69.85.67.5,1.07,1.19,1.18,2.06l4.64-.83c-.18-1.22-.64-2.28-1.4-3.19-.75-.91-1.75-1.6-2.97-2.09-1.23-.49-2.63-.74-4.22-.74s-3.03.25-4.23.76c-1.2.51-2.13,1.24-2.79,2.18-.67.94-1,2.05-1,3.32,0,1.02.22,1.89.66,2.6.44.72,1.16,1.34,2.17,1.86,1.01.52,2.37,1.01,4.08,1.46,1.53.4,2.67.74,3.42,1,.74.26,1.22.54,1.44.82.22.28.33.66.33,1.12,0,.75-.3,1.35-.9,1.78-.6.43-1.44.65-2.54.65-1.25,0-2.28-.29-3.09-.87-.82-.58-1.35-1.37-1.58-2.38l-4.64.72c.34,2.05,1.3,3.64,2.87,4.77s3.62,1.7,6.13,1.7,4.69-.58,6.18-1.75,2.24-2.78,2.24-4.83c0-1.06-.22-1.96-.65-2.7s-1.14-1.38-2.11-1.92Z"/><rect class="cls-1" x="140.27" y="138.84" width="4.55" height="20.38"/><rect class="cls-1" x="140.27" y="131.58" width="4.55" height="4.17"/><path class="cls-1" d="M164.08,139.65c-1.52-.92-3.31-1.38-5.36-1.38s-3.76.45-5.28,1.36c-1.52.91-2.71,2.16-3.57,3.77-.86,1.61-1.28,3.48-1.28,5.62s.42,3.96,1.25,5.58c.84,1.62,2.02,2.88,3.54,3.8s3.3,1.38,5.34,1.38,3.82-.46,5.34-1.37c1.52-.91,2.71-2.18,3.56-3.79s1.27-3.48,1.27-5.59-.42-3.96-1.26-5.58c-.84-1.62-2.03-2.88-3.55-3.8ZM162.76,153.71c-.88,1.21-2.23,1.81-4.04,1.81s-3.07-.59-3.97-1.76c-.9-1.18-1.35-2.75-1.35-4.73,0-1.28.19-2.41.57-3.39.38-.97.96-1.74,1.75-2.28s1.79-.82,3.01-.82c1.79,0,3.13.59,4.02,1.76.89,1.18,1.34,2.75,1.34,4.73s-.44,3.47-1.32,4.68Z"/><polygon class="cls-1" points="163.42 128.94 159.97 128.94 157.06 135.92 160.52 135.92 163.42 128.94"/><path class="cls-1" d="M190.32,143.43c-.28-.88-.7-1.71-1.28-2.49-.58-.78-1.36-1.42-2.34-1.92-.98-.5-2.23-.75-3.74-.75-1.91,0-3.52.42-4.83,1.25-.7.45-1.31.99-1.83,1.61v-2.28h-4.06v20.38h4.6v-10.47c0-1.25.14-2.27.42-3.07.28-.8.64-1.43,1.1-1.89.46-.46.97-.78,1.54-.97.57-.19,1.14-.28,1.72-.28,1.08,0,1.94.23,2.58.7.63.47,1.11,1.06,1.43,1.78.32.72.53,1.47.61,2.25.09.78.13,1.49.13,2.13v9.81h4.6v-11.38c0-.49-.04-1.13-.12-1.92-.08-.79-.26-1.62-.54-2.5Z"/><rect class="cls-1" x="195.89" y="154.56" width="4.66" height="4.66"/><polygon class="cls-1" points="232.49 132.05 210.36 132.05 210.36 136.31 219.15 136.31 219.15 159.22 223.69 159.22 223.69 136.31 232.49 136.31 232.49 132.05"/><path class="cls-1" d="M246.62,149.31c0,1.23-.14,2.25-.42,3.06-.28.81-.64,1.44-1.1,1.9-.46.46-.97.78-1.54.97-.57.19-1.14.28-1.72.28-1.08,0-1.94-.23-2.58-.7-.63-.47-1.11-1.06-1.43-1.78-.32-.72-.53-1.48-.61-2.26s-.13-1.49-.13-2.12v-9.81h-4.6v11.38c0,.49.04,1.13.12,1.92.08.79.26,1.62.54,2.5.28.88.7,1.71,1.28,2.49.58.78,1.36,1.42,2.34,1.92.98.5,2.23.75,3.74.75,1.91,0,3.52-.42,4.83-1.25.7-.45,1.31-.99,1.83-1.61v2.28h4.02v-20.38h-4.57v10.47Z"/><path class="cls-1" d="M268.43,143.38c.77-.56,1.74-.84,2.92-.84,1.04,0,1.97.3,2.79.91.82.61,1.4,1.46,1.75,2.56l4.53-1.23c-.49-2.01-1.54-3.6-3.14-4.76-1.6-1.16-3.56-1.75-5.88-1.75-2.06,0-3.84.46-5.34,1.39-1.5.92-2.65,2.2-3.46,3.81s-1.22,3.47-1.24,5.56c.01,2.05.41,3.89,1.2,5.51s1.92,2.9,3.41,3.84c1.48.94,3.28,1.41,5.38,1.41,2.28,0,4.2-.56,5.77-1.67s2.67-2.71,3.3-4.78l-4.64-1.04c-.35,1.04-.88,1.84-1.58,2.4-.7.55-1.65.83-2.86.83-1.71,0-3-.6-3.87-1.79-.87-1.19-1.3-2.76-1.3-4.7,0-1.25.18-2.36.55-3.34.36-.98.93-1.75,1.7-2.31Z"/><path class="cls-1" d="M299.19,142.07c-.67-1.35-1.69-2.31-3.07-2.91-1.38-.59-2.97-.89-4.78-.89-2.4,0-4.31.52-5.73,1.57s-2.37,2.43-2.88,4.15l4.15,1.3c.34-1.04.94-1.78,1.79-2.21s1.74-.64,2.66-.64c1.52,0,2.6.33,3.25,1,.53.55.82,1.37.91,2.44-.82.12-1.62.24-2.39.35-1.29.18-2.48.38-3.58.59s-2.06.45-2.88.72c-1.08.37-1.96.83-2.64,1.41-.68.57-1.18,1.25-1.51,2.04s-.49,1.67-.49,2.65c0,1.12.26,2.14.78,3.08s1.29,1.68,2.31,2.24c1.02.56,2.26.84,3.74.84,1.84,0,3.37-.34,4.59-1.03.94-.53,1.79-1.29,2.56-2.29v2.75h3.98v-12.51c0-.88-.04-1.69-.11-2.44-.08-.75-.3-1.48-.66-2.2ZM295.01,152.78c-.15.47-.44.96-.88,1.49-.43.53-1.02.97-1.75,1.34-.73.37-1.61.55-2.64.55-.72,0-1.32-.11-1.8-.34s-.85-.53-1.1-.92c-.25-.38-.38-.83-.38-1.33,0-.44.1-.82.29-1.15.2-.33.47-.62.84-.87.36-.25.81-.47,1.34-.66.54-.18,1.16-.34,1.87-.48.7-.14,1.55-.3,2.53-.46.62-.1,1.34-.22,2.12-.34,0,.35-.02.73-.04,1.18-.03.75-.17,1.41-.41,1.99Z"/><path class="cls-1" d="M326.15,138.33c-1.36,0-2.59.3-3.7.91-1.05.57-1.88,1.36-2.52,2.36-.5-.94-1.2-1.72-2.11-2.29-1.02-.65-2.3-.97-3.82-.97-1.38,0-2.63.3-3.74.91-.86.47-1.58,1.07-2.16,1.81v-2.21h-4.02v20.38h4.58v-12.55c0-1.27.35-2.3,1.05-3.09.7-.79,1.63-1.19,2.78-1.19s2.14.4,2.83,1.19c.69.79,1.04,1.9,1.04,3.32v12.32h4.53v-12.55c0-.89.17-1.66.51-2.31.34-.65.8-1.14,1.38-1.47.58-.33,1.23-.5,1.96-.5,1.18,0,2.12.39,2.81,1.18.69.79,1.04,1.88,1.04,3.27v12.38h4.55v-13.53c0-2.2-.6-3.98-1.8-5.33-1.2-1.35-2.93-2.03-5.18-2.03Z"/><rect class="cls-1" x="337.66" y="131.58" width="4.55" height="4.17"/><rect class="cls-1" x="337.66" y="138.84" width="4.55" height="20.38"/><path class="cls-1" d="M365.15,143.43c-.28-.88-.7-1.71-1.28-2.49-.58-.78-1.36-1.42-2.34-1.92-.98-.5-2.23-.75-3.74-.75-1.91,0-3.52.42-4.83,1.25-.7.45-1.31.99-1.83,1.61v-2.28h-4.06v20.38h4.6v-10.47c0-1.25.14-2.27.42-3.07.28-.8.64-1.43,1.1-1.89.46-.46.97-.78,1.54-.97.57-.19,1.14-.28,1.72-.28,1.08,0,1.94.23,2.58.7.63.47,1.11,1.06,1.43,1.78.32.72.53,1.47.61,2.25.09.78.13,1.49.13,2.13v9.81h4.6v-11.38c0-.49-.04-1.13-.12-1.92-.08-.79-.26-1.62-.54-2.5Z"/><path class="cls-1" d="M383.99,139.65c-1.52-.92-3.31-1.38-5.36-1.38s-3.76.45-5.28,1.36c-1.52.91-2.71,2.16-3.57,3.77-.86,1.61-1.28,3.48-1.28,5.62s.42,3.96,1.25,5.58c.84,1.62,2.02,2.88,3.54,3.8s3.3,1.38,5.34,1.38,3.82-.46,5.34-1.37c1.52-.91,2.71-2.18,3.56-3.79s1.27-3.48,1.27-5.59-.42-3.96-1.26-5.58c-.84-1.62-2.03-2.88-3.55-3.8ZM382.67,153.71c-.88,1.21-2.23,1.81-4.04,1.81s-3.07-.59-3.97-1.76c-.9-1.18-1.35-2.75-1.35-4.73,0-1.28.19-2.41.57-3.39.38-.97.96-1.74,1.75-2.28s1.79-.82,3.01-.82c1.79,0,3.13.59,4.02,1.76.89,1.18,1.34,2.75,1.34,4.73s-.44,3.47-1.32,4.68Z"/><rect class="cls-1" x="392.2" y="154.56" width="4.66" height="4.66"/></svg>