<?xml version="1.0" encoding="UTF-8"?><svg id="layout" xmlns="http://www.w3.org/2000/svg" viewBox="0 0 727.22 135.03"><defs><style>.cls-1{fill:#003594;}</style></defs><path class="cls-1" d="M437.63,54.13h13.43l14.08,44.61h.97l13.97-44.61h13.75l-19.38,56.74h-17.33l-19.49-56.74Z"/><path class="cls-1" d="M562.37,54.13h12.78v6.5h.98c2.49-4.33,7.69-7.9,15.27-7.9,12.45,0,20.36,9.31,20.36,21.01v37.14h-12.78v-34.11c0-7.04-4.98-11.91-11.48-11.91-7.04,0-12.34,5.41-12.34,12.56v33.46h-12.78v-56.74Z"/><path class="cls-1" d="M620.36,93.87v-28.48h0v-11.26h0v-15.92h12.89v15.92h16.03v11.26h-16.03v28.37c0,4.01,1.62,5.74,5.52,5.74h9.85v11.37h-9.96c-11.05,0-18.3-4.98-18.3-17Z"/><path class="cls-1" d="M654.07,82.61c0-17.87,13.1-29.89,28.37-29.89,17.33,0,27.83,12.56,27.83,29.45v3.57h-42.99c.11,9.53,6.28,15.59,15.59,15.59,6.28,0,12.24-3.25,14.29-9.53l11.69,2.82c-3.68,11.8-14.08,17.65-25.88,17.65-17.33,0-28.91-12.34-28.91-29.67ZM697.28,76.44c-.65-7.69-7.04-12.56-14.83-12.56s-14.29,5.74-15.05,12.56h29.89Z"/><path class="cls-1" d="M363.65,43.61c-3.6-6.62-8.83-11.84-15.53-15.53-6.7-3.68-14.64-5.55-23.59-5.55h-34.85v26l21.8,17.3c.56.44.56,1.29,0,1.74l-21.74,17.25-.06.05v26h34.85c8.96,0,16.89-1.87,23.59-5.55,6.7-3.69,11.93-8.93,15.53-15.59,3.6-6.66,5.43-14.41,5.43-23.03s-1.83-16.47-5.43-23.09ZM303.37,88.35l23.63-18.76c1.78-1.42,1.79-4.12.02-5.55l-23.64-18.99v-10.33h21.43c9.58,0,17.1,2.95,22.36,8.77,5.2,5.76,7.83,13.56,7.83,23.2s-2.64,17.45-7.83,23.2c-5.26,5.82-12.79,8.78-22.37,8.78h-21.43v-10.33Z"/><path class="cls-1" d="M417.94,54.14h13.16v56.73h-13.16v-5.94c-5.4,5.05-11.2,7.57-17.42,7.57-7.84,0-14.33-2.83-19.45-8.5-5.09-5.79-7.63-13.01-7.63-21.67s2.54-15.59,7.63-21.26c5.09-5.67,11.45-8.5,19.1-8.5,6.6,0,12.52,2.72,17.77,8.15v-6.58ZM386.84,82.33c0,5.44,1.46,9.86,4.37,13.28,2.99,3.46,6.76,5.18,11.3,5.18,4.85,0,8.78-1.67,11.77-5.01,2.99-3.46,4.49-7.84,4.49-13.16s-1.5-9.71-4.49-13.16c-2.99-3.38-6.87-5.07-11.65-5.07-4.5,0-8.27,1.71-11.3,5.13-2.99,3.46-4.49,7.73-4.49,12.81Z"/><path class="cls-1" d="M538.86,54.14h13.16v56.73h-13.16v-5.94c-5.4,5.05-11.2,7.57-17.42,7.57-7.84,0-14.33-2.83-19.45-8.5-5.09-5.79-7.63-13.01-7.63-21.67s2.54-15.59,7.63-21.26c5.09-5.67,11.45-8.5,19.1-8.5,6.6,0,12.52,2.72,17.77,8.15v-6.58ZM507.75,82.33c0,5.44,1.46,9.86,4.37,13.28,2.99,3.46,6.76,5.18,11.3,5.18,4.85,0,8.78-1.67,11.77-5.01,2.99-3.46,4.49-7.84,4.49-13.16s-1.5-9.71-4.49-13.16c-2.99-3.38-6.87-5.07-11.65-5.07-4.5,0-8.27,1.71-11.3,5.13-2.99,3.46-4.49,7.73-4.49,12.81Z"/><path class="cls-1" d="M20.03,110.87v-31.75h19.11v5.31h-13.8v7.92h11.16v5.29h-11.16v13.23h-5.31Z"/><path class="cls-1" d="M55.24,111.53c-2.53,0-4.75-.51-6.67-1.54s-3.42-2.48-4.5-4.34c-1.08-1.87-1.62-4.06-1.62-6.57v-19.91l5.38-.04v19.82c0,1.19.2,2.26.61,3.2s.95,1.74,1.64,2.39c.69.65,1.48,1.15,2.38,1.49.9.34,1.82.51,2.78.51s1.92-.17,2.81-.52c.89-.34,1.68-.84,2.37-1.5.69-.65,1.23-1.45,1.63-2.39.4-.94.6-2,.6-3.17v-19.82h5.38v19.95c0,2.51-.54,4.7-1.62,6.57-1.08,1.87-2.58,3.31-4.5,4.34-1.92,1.03-4.14,1.54-6.67,1.54Z"/><path class="cls-1" d="M73.54,110.87v-31.75h5.38l14.73,22.38v-22.38h5.38v31.75h-5.38l-14.73-22.38v22.38h-5.38Z"/><path class="cls-1" d="M104.53,110.87v-31.75h10.12c.26,0,.79,0,1.58.02s1.55.07,2.28.15c2.51.32,4.64,1.22,6.38,2.68,1.74,1.46,3.06,3.33,3.96,5.59s1.35,4.74,1.35,7.43-.45,5.17-1.35,7.43c-.9,2.26-2.21,4.13-3.96,5.59-1.74,1.46-3.87,2.36-6.38,2.68-.72.09-1.48.14-2.27.15-.79.02-1.32.02-1.59.02h-10.12ZM109.94,105.87h4.72c.44,0,1-.01,1.69-.04.68-.03,1.29-.1,1.82-.2,1.5-.28,2.72-.95,3.66-2.01.94-1.06,1.63-2.34,2.08-3.86s.67-3.1.67-4.76-.23-3.34-.68-4.85c-.46-1.51-1.16-2.79-2.11-3.81-.95-1.03-2.16-1.68-3.63-1.96-.53-.12-1.13-.19-1.82-.21-.68-.02-1.25-.03-1.69-.03h-4.72v21.74Z"/><path class="cls-1" d="M154.01,110.87h5.47l-10.01-31.75h-7.78l-10.01,31.75h5.47l2.17-6.88h12.5l2.19,6.88ZM140.87,99.03l4.65-14.77,4.71,14.77h-9.36Z"/><path class="cls-1" d="M175.32,111.53c-3.17,0-5.89-.69-8.16-2.08s-4-3.33-5.21-5.81c-1.21-2.48-1.82-5.36-1.82-8.64s.61-6.16,1.82-8.64c1.21-2.48,2.95-4.42,5.21-5.81,2.26-1.39,4.98-2.08,8.16-2.08,3.66,0,6.71.92,9.15,2.75,2.44,1.83,4.15,4.29,5.14,7.4l-5.36,1.48c-.62-2.07-1.67-3.69-3.15-4.86-1.48-1.17-3.41-1.75-5.78-1.75-2.13,0-3.91.48-5.32,1.43s-2.48,2.3-3.2,4.02c-.71,1.73-1.08,3.75-1.09,6.07,0,2.32.36,4.35,1.07,6.07.71,1.73,1.78,3.07,3.21,4.02,1.42.96,3.2,1.43,5.33,1.43,2.37,0,4.29-.59,5.78-1.76s2.54-2.79,3.15-4.85l5.36,1.48c-.98,3.1-2.7,5.57-5.14,7.4-2.44,1.83-5.49,2.74-9.15,2.74Z"/><path class="cls-1" d="M194.24,110.87v-31.75h5.31v31.75h-5.31Z"/><path class="cls-1" d="M218.93,111.53c-3.17,0-5.89-.69-8.16-2.08s-4-3.33-5.21-5.81c-1.21-2.48-1.82-5.36-1.82-8.64s.61-6.16,1.82-8.64c1.21-2.48,2.95-4.42,5.21-5.81,2.26-1.39,4.98-2.08,8.16-2.08s5.9.69,8.17,2.08c2.27,1.39,4.01,3.33,5.23,5.81,1.21,2.48,1.82,5.37,1.82,8.64s-.61,6.16-1.82,8.64c-1.21,2.48-2.95,4.42-5.23,5.81-2.27,1.39-4.99,2.08-8.17,2.08ZM218.93,106.53c2.13.01,3.91-.46,5.32-1.41s2.48-2.3,3.2-4.04c.71-1.73,1.07-3.76,1.07-6.08s-.36-4.34-1.07-6.05c-.71-1.71-1.78-3.05-3.2-4-1.42-.96-3.19-1.45-5.32-1.48-2.13-.01-3.9.46-5.31,1.41-1.41.96-2.47,2.3-3.19,4.04s-1.07,3.76-1.07,6.08.35,4.34,1.06,6.05c.71,1.71,1.77,3.05,3.19,4,1.42.96,3.19,1.45,5.32,1.48ZM221.18,75.71h-4.04l3.4-8.16h4.03l-3.39,8.16Z"/><path class="cls-1" d="M237.89,110.87v-31.75h5.38l14.73,22.38v-22.38h5.38v31.75h-5.38l-14.73-22.38v22.38h-5.38Z"/></svg>