<?xml version="1.0" encoding="UTF-8"?><svg id="layout" xmlns="http://www.w3.org/2000/svg" viewBox="0 0 1207.56 176.62"><defs><style>.cls-1{fill:#003594;}</style></defs><polygon class="cls-1" points="519.14 135.95 516.11 135.95 516.31 56.43 519.34 56.43 519.14 135.95"/><path class="cls-1" d="M611.86,128.99h-10.08v-23.62c0-.87-.32-1.63-.97-2.28-.65-.65-1.41-.97-2.28-.97h-6.82v26.88h-10.08v-26.88h-6.79c-.9,0-1.67.32-2.32.96-.65.64-.97,1.41-.97,2.3v23.62h-10.08v-23.85c0-2.58.99-4.84,2.96-6.8,1.97-1.96,4.24-2.94,6.82-2.94h30.87c2.6,0,4.87.97,6.82,2.92,1.95,1.95,2.92,4.22,2.92,6.82v23.85Z"/><path class="cls-1" d="M650.49,128.99h-23.75c-2.62,0-4.92-.98-6.89-2.94-1.97-1.96-2.96-4.25-2.96-6.87v-.54c0-2.64.98-4.94,2.94-6.89,1.96-1.95,4.26-2.92,6.9-2.92h13.67v-3.46c0-.87-.32-1.63-.97-2.28s-1.41-.97-2.28-.97h-20.26v-6.72h23.85c2.6,0,4.87.97,6.82,2.92,1.95,1.95,2.92,4.22,2.92,6.82v23.85ZM640.41,122.27v-6.72h-10.15c-.92,0-1.7.33-2.33.99-.64.66-.96,1.45-.96,2.37s.32,1.68.97,2.35,1.42,1.01,2.32,1.01h10.15,0Z"/><path class="cls-1" d="M690.81,119.18c0,2.64-.97,4.94-2.92,6.89-1.95,1.95-4.25,2.92-6.89,2.92h-23.78v-6.72h20.26c.9,0,1.66-.34,2.3-1.01.64-.67.96-1.46.96-2.35s-.31-1.71-.94-2.37c-.63-.66-1.4-.99-2.32-.99h-10.41c-2.62,0-4.92-.99-6.89-2.96-1.97-1.97-2.96-4.46-2.96-7.46,0-2.6.98-4.87,2.94-6.82,1.96-1.95,4.24-2.92,6.84-2.92h23.82v6.72h-20.22c-.94,0-1.72.34-2.35,1.01s-.94,1.48-.94,2.42c0,.87.33,1.64.99,2.3.66.66,1.43.99,2.3.99h10.41c2.66,0,4.97.98,6.9,2.94s2.91,4.43,2.91,7.41h0Z"/><path class="cls-1" d="M728.43,102.12h-10.08v26.88h-10.08v-26.88h-10.08v-6.72h30.24v6.72Z"/><path class="cls-1" d="M770.42,128.99h-23.82c-2.6,0-4.88-.98-6.84-2.94-1.96-1.96-2.94-4.24-2.94-6.84v-14.01c0-2.64.98-4.94,2.94-6.89,1.96-1.95,4.26-2.92,6.9-2.92h13.94c2.64,0,4.94.97,6.89,2.92,1.95,1.95,2.92,4.24,2.92,6.89v.54c0,2.64-.97,4.94-2.91,6.89-1.94,1.95-4.24,2.92-6.9,2.92h-13.71v3.43c0,.87.33,1.64.99,2.3s1.43.99,2.3.99h20.22v6.72ZM760.35,105.48c0-.92-.31-1.71-.94-2.37-.63-.66-1.4-.99-2.32-.99h-6.89c-.9,0-1.67.32-2.32.96-.65.64-.97,1.41-.97,2.3v3.46h10.18c.92,0,1.69-.33,2.32-.99.63-.66.94-1.45.94-2.37h0Z"/><path class="cls-1" d="M804.02,102.12h-13.51c-.9,0-1.67.32-2.32.96-.65.64-.97,1.41-.97,2.3v23.62h-10.08v-23.85c0-2.58.99-4.84,2.96-6.8,1.97-1.96,4.24-2.94,6.82-2.94h17.1v6.72Z"/><path class="cls-1" d="M870.09,119.22c0,2.6-.97,4.88-2.92,6.84-1.95,1.96-4.23,2.94-6.85,2.94h-23.82v-33.59h23.78c2.62,0,4.91.99,6.87,2.96,1.96,1.97,2.94,4.26,2.94,6.85v14.01ZM860.01,118.98v-13.61c0-.87-.32-1.63-.97-2.28s-1.41-.97-2.28-.97h-10.18v20.16h10.18c.87,0,1.63-.33,2.28-.99.65-.66.97-1.43.97-2.3Z"/><rect class="cls-1" x="812.59" y="119.05" width="9.8" height="9.8"/><path class="cls-1" d="M945.5,114.58c-1.56.42-3.49.93-6.47.94h0s-.02,0-.03,0c0,0-.02,0-.03,0h0c-2.98,0-4.91-.52-6.47-.94-1.16-.31-2.16-.58-3.33-.58-2.15,0-4.53.69-5.63,1.06.02.1.04.2.06.29,0,0,0,0,0,0,0,0,.83,3.46,4.33,6.36,3.5,2.9,11,8.08,11,8.08,0,0,8.28-5.94,9.66-6.93,4-3.22,5.23-5.78,5.6-7.05h.01s.13-.36.21-.77c-1.13-.37-3.45-1.04-5.56-1.04-1.18,0-2.18.27-3.33.58Z"/><path class="cls-1" d="M945.5,110.4c-1.56.42-3.49.93-6.47.94h0s-.02,0-.03,0c0,0-.02,0-.03,0h0c-2.98,0-4.91-.52-6.47-.94-1.16-.31-2.16-.58-3.33-.58-2.23,0-4.69.74-5.73,1.09v2.02c1.35-.42,3.6-.99,5.73-.99,1.44,0,2.62.31,3.86.64,1.52.41,3.25.87,5.97.87,2.72,0,4.45-.46,5.97-.87,1.24-.33,2.42-.64,3.86-.64,2.1,0,4.3.55,5.66.97v-2.03c-1.08-.36-3.49-1.07-5.66-1.07-1.18,0-2.18.27-3.33.58Z"/><path class="cls-1" d="M954.5,90.45l-9.42,16.45s-.07.02-.11.03c-.57.15-1.18.31-1.85.45l10.81-18.86h-1.87l-10.99,19.18c-.53.05-1.11.09-1.74.1l11.05-19.28h-1.87l-11.02,19.24c-.58-.04-1.1-.09-1.59-.16l10.93-19.08h-23.37v20.25c1.35-.42,3.6-.99,5.73-.99,1.44,0,2.62.31,3.86.64,1.52.41,3.25.87,5.97.87,2.72,0,4.45-.46,5.97-.87,1.24-.33,2.42-.64,3.86-.64,2.1,0,4.3.55,5.66.97v-11.91l-5.42,9.46c-.11,0-.22,0-.33,0-.5,0-.96.04-1.41.1l7.16-12.49v-3.45ZM932.36,98.28l-.51,2.38-.54-2.38-2.44-.53,2.43-.56.54-2.41.53,2.44,2.37.51-2.37.54Z"/><path class="cls-1" d="M1138.56,129.33c7.23,0,13.04-3.09,16.6-8.31l-3.32-2.31c-2.91,4.21-7.42,6.77-13.28,6.77-9.43,0-16.25-7.18-16.25-16.79s6.82-16.78,16.25-16.78c5.81,0,10.14,2.49,12.75,6.34l3.26-2.37c-3.44-5.16-8.9-7.83-16.01-7.83-11.45,0-20.7,8.48-20.7,20.64s9.25,20.64,20.7,20.64"/><path class="cls-1" d="M1100.43,88.11h-.71l-16.72,40.74h4.21l2.67-6.76h20.4l2.73,6.76h4.51l-17.08-40.74ZM1091.35,118.42l7.12-17.91c.77-1.9,1.6-4.8,1.6-4.8,0,0,.77,2.91,1.54,4.8l7.12,17.91h-17.38Z"/><path class="cls-1" d="M1060.81,88.53h-9.78v40.32h9.78c13.52,0,21.82-7.94,21.82-20.16s-8.36-20.16-21.82-20.16ZM1060.52,125h-5.22v-32.61h5.22c11.92,0,17.61,6.7,17.61,16.3s-5.69,16.31-17.61,16.31Z"/><polygon class="cls-1" points="1019.01 128.85 1044.39 128.85 1044.39 125.05 1023.28 125.05 1023.28 114.97 1041.36 114.97 1041.36 111.24 1023.28 111.24 1023.28 92.32 1043.56 92.32 1043.56 88.53 1019.01 88.53 1019.01 128.85"/><path class="cls-1" d="M1001.02,88.11h-.71l-11.03,28.7c-.65,1.66-1.25,3.97-1.25,3.97,0,0-.54-2.31-1.19-3.97l-10.85-28.7h-.71l-13.28,40.74h4.33l8.42-26.86c.53-1.72,1.13-4.39,1.13-4.39,0,0,.65,2.67,1.3,4.39l10.5,27.28h.71l10.5-27.28c.65-1.72,1.31-4.39,1.31-4.39,0,0,.59,2.61,1.12,4.39l8.48,26.86h4.57l-13.34-40.74Z"/><path class="cls-1" d="M200.65,72.33h13.45l14.1,44.7h.98l14-44.7h13.78l-19.42,56.86h-17.36l-19.53-56.86Z"/><path class="cls-1" d="M325.63,72.33h12.8v6.51h.98c2.49-4.34,7.7-7.92,15.3-7.92,12.48,0,20.4,9.33,20.4,21.05v37.21h-12.8v-34.18c0-7.05-4.99-11.94-11.5-11.94-7.05,0-12.37,5.43-12.37,12.59v33.53h-12.8v-56.86Z"/><path class="cls-1" d="M383.74,112.15v-28.53h0v-11.29h0v-15.95h12.91v15.95h16.06v11.29h-16.06v28.43c0,4.02,1.63,5.75,5.53,5.75h9.87v11.39h-9.98c-11.07,0-18.34-4.99-18.34-17.04Z"/><path class="cls-1" d="M417.52,100.87c0-17.9,13.13-29.95,28.43-29.95,17.36,0,27.88,12.58,27.88,29.51v3.58h-43.07c.11,9.55,6.29,15.62,15.62,15.62,6.29,0,12.26-3.25,14.32-9.55l11.72,2.82c-3.69,11.83-14.1,17.69-25.93,17.69-17.36,0-28.97-12.37-28.97-29.73ZM460.81,94.68c-.65-7.7-7.05-12.58-14.86-12.58s-14.32,5.75-15.08,12.58h29.95Z"/><path class="cls-1" d="M126.52,61.79c-3.61-6.63-8.85-11.87-15.56-15.56-6.71-3.69-14.67-5.56-23.64-5.56h-34.92v26.06l21.84,17.34c.56.44.56,1.3,0,1.74l-21.78,17.29-.06.05v26.05h34.92c8.97,0,16.93-1.87,23.64-5.56,6.72-3.69,11.95-8.95,15.56-15.63,3.61-6.67,5.44-14.44,5.44-23.07s-1.83-16.5-5.44-23.13ZM66.12,106.62l23.68-18.79c1.79-1.42,1.8-4.13.02-5.56l-23.69-19.03v-10.35h21.47c9.6,0,17.14,2.96,22.41,8.79,5.21,5.77,7.85,13.59,7.85,23.25s-2.64,17.48-7.85,23.25c-5.27,5.84-12.81,8.79-22.41,8.79h-21.47v-10.35Z"/><path class="cls-1" d="M180.92,72.34h13.19v56.84h-13.19v-5.95c-5.41,5.06-11.23,7.59-17.45,7.59-7.86,0-14.36-2.84-19.49-8.52-5.1-5.8-7.65-13.03-7.65-21.71s2.55-15.62,7.65-21.3c5.1-5.68,11.48-8.52,19.14-8.52,6.61,0,12.55,2.72,17.8,8.17v-6.6ZM149.76,100.59c0,5.45,1.46,9.88,4.38,13.31,3,3.46,6.77,5.19,11.32,5.19,4.86,0,8.79-1.67,11.79-5.02,3-3.46,4.49-7.86,4.49-13.19s-1.5-9.73-4.49-13.19c-3-3.39-6.89-5.08-11.67-5.08-4.51,0-8.29,1.71-11.32,5.14-3,3.46-4.49,7.74-4.49,12.84Z"/><path class="cls-1" d="M302.07,72.34h13.19v56.84h-13.19v-5.95c-5.41,5.06-11.23,7.59-17.45,7.59-7.86,0-14.36-2.84-19.49-8.52-5.1-5.8-7.65-13.03-7.65-21.71s2.55-15.62,7.65-21.3c5.1-5.68,11.48-8.52,19.14-8.52,6.61,0,12.55,2.72,17.8,8.17v-6.6ZM270.91,100.59c0,5.45,1.46,9.88,4.38,13.31,3,3.46,6.77,5.19,11.32,5.19,4.86,0,8.79-1.67,11.79-5.02,3-3.46,4.49-7.86,4.49-13.19s-1.5-9.73-4.49-13.19c-3-3.39-6.89-5.08-11.67-5.08-4.51,0-8.29,1.71-11.32,5.14-3,3.46-4.49,7.74-4.49,12.84Z"/></svg>